/* XPM */
static char *_a5e7e2535364a4bfe21b81a4c587f73[] = {
/* columns rows colors chars-per-pixel */
"22 22 104 2 ",
"   c black",
".  c #010101",
"X  c #020202",
"o  c gray4",
"O  c #1B1B1B",
"+  c #1E1E1E",
"@  c #202020",
"#  c #313131",
"$  c #343434",
"%  c #353535",
"&  c #373737",
"*  c gray22",
"=  c #3C3C3C",
"-  c gray24",
";  c #3E3E3E",
":  c #434343",
">  c gray27",
",  c #4C4C4C",
"<  c #505050",
"1  c #535353",
"2  c #585858",
"3  c #5A5A5A",
"4  c gray36",
"5  c gray38",
"6  c #626262",
"7  c gray40",
"8  c #686868",
"9  c gray43",
"0  c gray44",
"q  c #747474",
"w  c gray47",
"e  c #797979",
"r  c gray49",
"t  c #7E7E7E",
"y  c gray50",
"u  c gray52",
"i  c gray53",
"p  c #898989",
"a  c #8B8B8B",
"s  c gray55",
"d  c gray56",
"f  c #909090",
"g  c gray58",
"h  c #979797",
"j  c #9A9A9A",
"k  c #9D9D9D",
"l  c gray63",
"z  c #A5A5A5",
"x  c #A9A9A9",
"c  c gray68",
"v  c #AFAFAF",
"b  c gray69",
"n  c #B2B2B2",
"m  c gray70",
"M  c #B4B4B4",
"N  c gray71",
"B  c #B6B6B6",
"V  c #B7B7B7",
"C  c gray72",
"Z  c #B9B9B9",
"A  c gray73",
"S  c #BCBCBC",
"D  c gray",
"F  c gray75",
"G  c #C1C1C1",
"H  c #C3C3C3",
"J  c gray77",
"K  c #C6C6C6",
"L  c gray78",
"P  c #C8C8C8",
"I  c #CBCBCB",
"U  c #CECECE",
"Y  c gray81",
"T  c #D0D0D0",
"R  c gray82",
"E  c #D2D2D2",
"W  c LightGray",
"Q  c gray83",
"!  c #D5D5D5",
"~  c gray84",
"^  c #D7D7D7",
"/  c #D8D8D8",
"(  c gray85",
")  c gray86",
"_  c gainsboro",
"`  c gray87",
"'  c #DFDFDF",
"]  c gray88",
"[  c #E1E1E1",
"{  c #E2E2E2",
"}  c gray89",
"|  c #E4E4E4",
" . c gray90",
".. c #E6E6E6",
"X. c #E7E7E7",
"o. c gray91",
"O. c #E9E9E9",
"+. c #EAEAEA",
"@. c gray92",
"#. c #ECECEC",
"$. c gray93",
"%. c #EEEEEE",
"&. c #EFEFEF",
"*. c None",
/* pixels */
"*.*.*.*.*.*.*.*.*.#.#.#.#.*.*.*.*.*.*.*.*.*.",
"*.*.*.*.*.*.*.*.&.| ) ! | &.*.*.*.*.*.*.*.*.",
"*.*.*.*.*.*.*.*.#.! R ! ' #.*.*.*.*.*.*.*.*.",
"*.*.*.R q : z #.#.) ! R ) #.*.] J ! +.*.*.*.",
"*.*.*.9 o X * R *.| ) ) +.*.+.Z Z Z ) *.*.*.",
"*.*.+.% X X @ M *.*.*.*.*.*.' M M M R #.*.*.",
"*.*.*.j # O 5 ' *.*.*.*.*.*.#.P F J ] *.*.*.",
"*.*.*.+.J c ) *.*.*.*.*.*.*.*.#.] | &.*.*.*.",
"*.#.! | *.*.*.*.*.*.*.*.*.*.*.*.*.*.+.| &.*.",
"+.p % - G *.*.*.*.*.*.*.*.*.*.*.#.) z l R &.",
"! * + + 1 #.*.*.*.*.*.*.*.*.*.*.#.b j g k &.",
"! % + + 1 &.*.*.*.*.*.*.*.*.*.*.#.M g j k #.",
"+.d 1 3 Z *.*.*.*.*.*.*.*.*.*.*.&.) c c R &.",
"*.| Y ) #.*.*.*.*.*.*.*.*.*.*.*.*.#.| ] &.*.",
"*.*.*.*.' G #.*.*.*.*.*.*.*.*.*.! | *.*.*.*.",
"*.*.*.Z , > r +.*.*.*.*.*.*.#.j r d R *.*.*.",
"*.*.*.0 - - 3 J *.&.+.#.&.*.R r q e M #.*.*.",
"*.*.*.d : - 7 ! #.J f g Y #.' p q u G &.*.*.",
"*.*.*.! z d F #.' 0 3 3 p ] *.P b G | *.*.*.",
"*.*.*.*.#.+.*.*.) 8 3 3 u ' *.*.+.#.*.*.*.*.",
"*.*.*.*.*.*.*.*.&.x 4 7 M #.*.*.*.*.*.*.*.*.",
"*.*.*.*.*.*.*.*.*.&.#.#.&.*.*.*.*.*.*.*.*.*."
};
