/* XPM */
static char * spin_ctrl_double_xpm[] = {
"21 21 15 1",
" 	c None",
".	c #333366",
"+	c #FFFFFF",
"@	c #9BCDFF",
"#	c #000000",
"$	c #F8FFFF",
"%	c #A5D5FF",
"&	c #808080",
"*	c #F1FFFF",
"=	c #AAD9FF",
"-	c #F3FFFF",
";	c #C2EAFF",
">	c #E5FFFF",
",	c #EEFFFF",
"'	c #EBFFFF",
"                     ",
"                     ",
"                     ",
"                     ",
"                     ",
".....................",
".++++++++++++.@@@@@@.",
".+###+++++#+$.%%&&%%.",
".+**#++++##+$.=&&&&=.",
".+##-+##++#--.;;;;;;.",
".$--#$##$$#**.>>>>>>.",
".---#-----#**.;&&&&;.",
".$##>>*$$###,.%%&&%=.",
".*,,'*****,''.@@@@@@.",
".....................",
"                     ",
"                     ",
"                     ",
"                     ",
"                     ",
"                     "};
